<?xml version="1.0" encoding="utf-8"?>
<!-- Generator: Adobe Illustrator 25.0.0, SVG Export Plug-In . SVG Version: 6.00 Build 0)  -->
<svg version="1.1" id="圖層_1" xmlns="http://www.w3.org/2000/svg" xmlns:xlink="http://www.w3.org/1999/xlink" x="0px" y="0px"
	 viewBox="0 0 22.68 22.68" style="enable-background:new 0 0 22.68 22.68;" xml:space="preserve">
<style type="text/css">
	.st0{fill:none;stroke:#3E3A39;stroke-width:0.5;stroke-miterlimit:10;}
	.st1{fill:none;stroke:#000000;stroke-width:0.5;stroke-miterlimit:10;}
	.st2{opacity:0.6;fill:#AE9676;}
	.st3{fill:#595757;}
	.st4{opacity:0.5;clip-path:url(#SVGID_4_);}
	.st5{clip-path:url(#SVGID_6_);}
	.st6{fill:none;stroke:#D3D3D4;stroke-width:1.5;stroke-miterlimit:10;}
	.st7{opacity:0.5;clip-path:url(#SVGID_8_);}
</style>
<g>
	<path class="st3" d="M19.19,7.2c-0.7,0.45-1.31,0.84-1.94,1.25c-0.08-0.12-0.15-0.23-0.22-0.33c-0.42-0.59-1.07-0.83-1.71-0.65
		c-0.4,0.11-0.67,0.35-0.76,0.75c-0.09,0.41-0.01,0.81,0.34,1.08c0.27,0.21,0.57,0.37,0.88,0.52c0.74,0.37,1.51,0.67,2.24,1.08
		c1.72,0.96,2.1,2.53,1.7,4.09c-0.22,0.88-0.8,1.49-1.59,1.9c-1.73,0.89-4.25,0.6-5.7-0.69c-0.4-0.35-0.7-0.81-1.07-1.25
		c0.72-0.42,1.36-0.79,2.02-1.17c0.14,0.18,0.27,0.36,0.4,0.52c0.66,0.81,1.74,1.14,2.72,0.83c0.46-0.14,0.82-0.39,0.91-0.91
		c0.09-0.54-0.13-0.97-0.6-1.22c-0.54-0.29-1.11-0.54-1.67-0.8c-0.71-0.32-1.41-0.64-1.98-1.19c-1.02-1-1.24-2.23-0.83-3.54
		c0.4-1.28,1.4-1.91,2.69-2.1c1.13-0.17,2.22-0.04,3.14,0.71C18.52,6.38,18.82,6.8,19.19,7.2z"/>
	<path class="st3" d="M2.83,15.15c0.65-0.4,1.29-0.78,1.96-1.19c0.13,0.2,0.24,0.38,0.36,0.56c0.38,0.57,0.93,0.75,1.59,0.65
		c0.47-0.07,0.78-0.39,0.86-0.88c0.04-0.26,0.06-0.53,0.06-0.79c0-2.54,0-5.09,0-7.63c0-0.13,0-0.26,0-0.41c0.81,0,1.58,0,2.39,0
		c0.01,0.11,0.02,0.21,0.02,0.32c0,2.64,0,5.29,0,7.93c0,0.65-0.08,1.28-0.36,1.87c-0.48,1.04-1.34,1.55-2.43,1.73
		c-0.73,0.12-1.46,0.09-2.17-0.13C4.06,16.86,3.32,16.16,2.83,15.15z"/>
</g>
</svg>
