<?xml version="1.0" encoding="utf-8"?>
<!-- Generator: Adobe Illustrator 25.0.0, SVG Export Plug-In . SVG Version: 6.00 Build 0)  -->
<svg version="1.1" id="圖層_1" xmlns="http://www.w3.org/2000/svg" xmlns:xlink="http://www.w3.org/1999/xlink" x="0px" y="0px"
	 viewBox="0 0 22.68 22.68" style="enable-background:new 0 0 22.68 22.68;" xml:space="preserve">
<style type="text/css">
	.st0{fill:none;stroke:#3E3A39;stroke-width:0.5;stroke-miterlimit:10;}
	.st1{fill:none;stroke:#000000;stroke-width:0.5;stroke-miterlimit:10;}
	.st2{opacity:0.6;fill:#AE9676;}
	.st3{fill:#595757;}
	.st4{opacity:0.5;clip-path:url(#SVGID_4_);}
	.st5{clip-path:url(#SVGID_6_);}
	.st6{fill:none;stroke:#D3D3D4;stroke-width:1.5;stroke-miterlimit:10;}
	.st7{opacity:0.5;clip-path:url(#SVGID_8_);}
</style>
<g>
	<path class="st3" d="M11.33,6.71c0.13-0.22,0.24-0.41,0.35-0.6c0.61-1.05,1.22-2.11,1.82-3.17c0.08-0.14,0.17-0.2,0.34-0.2
		c2.4,0.01,4.8,0.01,7.2,0.01c0.06,0,0.12,0,0.21,0c-3.31,5.74-6.61,11.45-9.93,17.19C8.02,14.2,4.73,8.49,1.42,2.76
		c0.07-0.01,0.12-0.02,0.16-0.02c2.42,0,4.84,0,7.26,0c0.15,0,0.23,0.05,0.31,0.18c0.67,1.17,1.34,2.33,2.01,3.49
		C11.21,6.5,11.26,6.59,11.33,6.71z M11.33,18.42c2.88-4.99,5.74-9.94,8.61-14.92c-1.03,0-2.01,0-2.99,0
		c-0.05,0-0.13,0.06-0.16,0.11c-0.22,0.36-0.42,0.73-0.63,1.09c-1.58,2.73-3.15,5.46-4.73,8.19c-0.03,0.05-0.06,0.09-0.1,0.15
		c-0.04-0.07-0.07-0.11-0.09-0.16C9.46,9.81,7.69,6.74,5.92,3.67C5.84,3.54,5.77,3.49,5.63,3.5c-0.91,0.01-1.82,0-2.73,0
		c-0.05,0-0.1,0.01-0.17,0.02C5.6,8.48,8.45,13.43,11.33,18.42z"/>
</g>
</svg>
