<?xml version="1.0" encoding="utf-8"?>
<!-- Generator: Adobe Illustrator 25.0.0, SVG Export Plug-In . SVG Version: 6.00 Build 0)  -->
<svg version="1.1" id="圖層_1" xmlns="http://www.w3.org/2000/svg" xmlns:xlink="http://www.w3.org/1999/xlink" x="0px" y="0px"
	 viewBox="0 0 22.68 22.68" style="enable-background:new 0 0 22.68 22.68;" xml:space="preserve">
<style type="text/css">
	.st0{fill:none;stroke:#3E3A39;stroke-width:0.5;stroke-miterlimit:10;}
	.st1{fill:none;stroke:#000000;stroke-width:0.5;stroke-miterlimit:10;}
	.st2{opacity:0.6;fill:#AE9676;}
	.st3{fill:#595757;}
	.st4{opacity:0.5;clip-path:url(#SVGID_4_);}
	.st5{clip-path:url(#SVGID_6_);}
	.st6{fill:none;stroke:#D3D3D4;stroke-width:1.5;stroke-miterlimit:10;}
	.st7{opacity:0.5;clip-path:url(#SVGID_8_);}
</style>
<g>
	<path class="st3" d="M0.71,6.47c0.03-0.15,0.06-0.31,0.1-0.46C0.91,5.63,1.08,5.28,1.36,5c0.61-0.62,1.22-1.25,1.86-1.84
		c0.63-0.58,1.4-0.59,2.04,0c0.73,0.67,1.41,1.39,2.11,2.09c0.28,0.28,0.58,0.56,0.8,0.89C8.56,6.72,8.5,7.37,8.02,7.89
		C7.53,8.43,7,8.94,6.48,9.46C6.14,9.8,6.15,9.81,6.35,10.25c0.54,1.17,1.35,2.15,2.22,3.09c0.87,0.94,1.83,1.78,2.91,2.46
		c0.37,0.23,0.78,0.42,1.17,0.63c0.18,0.1,0.31,0.02,0.44-0.11c0.49-0.5,0.99-0.99,1.48-1.49c0.26-0.26,0.56-0.47,0.93-0.55
		c0.45-0.09,0.84,0.04,1.18,0.31c0.22,0.18,0.42,0.38,0.62,0.58c0.68,0.68,1.36,1.36,2.04,2.04c0.25,0.25,0.47,0.53,0.56,0.88
		c0.12,0.47,0.01,0.92-0.3,1.26c-0.62,0.68-1.27,1.33-1.93,1.97c-0.36,0.35-0.82,0.53-1.32,0.6c-0.03,0-0.06,0.03-0.09,0.04
		c-0.32,0-0.64,0-0.96,0c-0.04-0.01-0.07-0.03-0.11-0.04c-0.57-0.12-1.16-0.19-1.72-0.37c-1.71-0.55-3.27-1.42-4.73-2.46
		c-2.64-1.87-4.75-4.22-6.35-7.03c-0.6-1.05-1.08-2.15-1.4-3.31C0.86,8.34,0.8,7.9,0.71,7.47C0.71,7.13,0.71,6.8,0.71,6.47z"/>
	<path class="st3" d="M21.97,10.68c-0.54,0.09-1.07,0.18-1.59,0.27c-1.12-4.79-4.07-7.66-8.92-8.65c0.07-0.51,0.14-1.05,0.22-1.59
		C16.54,1.28,21.09,5.28,21.97,10.68z"/>
	<path class="st3" d="M11.23,6.57c0.08-0.54,0.15-1.08,0.23-1.61c3.23,0.37,5.79,3.11,6.19,6.01c-0.53,0.09-1.05,0.18-1.6,0.28
		C15.46,8.65,13.85,7.1,11.23,6.57z"/>
</g>
</svg>
