<?xml version="1.0" encoding="utf-8"?>
<!-- Generator: Adobe Illustrator 25.0.0, SVG Export Plug-In . SVG Version: 6.00 Build 0)  -->
<svg version="1.1" id="圖層_1" xmlns="http://www.w3.org/2000/svg" xmlns:xlink="http://www.w3.org/1999/xlink" x="0px" y="0px"
	 viewBox="0 0 22.68 22.68" style="enable-background:new 0 0 22.68 22.68;" xml:space="preserve">
<style type="text/css">
	.st0{fill:none;stroke:#3E3A39;stroke-width:0.5;stroke-miterlimit:10;}
	.st1{fill:none;stroke:#000000;stroke-width:0.5;stroke-miterlimit:10;}
	.st2{opacity:0.6;fill:#AE9676;}
	.st3{fill:#595757;}
	.st4{opacity:0.5;clip-path:url(#SVGID_4_);}
	.st5{clip-path:url(#SVGID_6_);}
	.st6{fill:none;stroke:#D3D3D4;stroke-width:1.5;stroke-miterlimit:10;}
	.st7{opacity:0.5;clip-path:url(#SVGID_8_);}
</style>
<g>
	<path class="st3" d="M5.1,14.22c0-1.93,0-3.83,0-5.76C4.21,8.22,3.53,7.73,3.12,6.89c-0.3-0.62-0.36-1.26-0.19-1.93
		c0.33-1.31,1.5-2.19,2.85-2.13c1.46,0.06,2.51,1.05,2.71,2.55c0.14,1.05-0.44,2.6-2.24,3.07c0,1.89,0,3.77,0,5.7
		c0.1,0.01,0.2,0.02,0.3,0.02c1.23,0,2.46,0.01,3.69,0c3.2-0.02,5.84-2.42,6.17-5.6c0-0.03,0-0.07,0-0.12
		c-0.16-0.06-0.31-0.11-0.46-0.17c-1.27-0.51-1.94-1.77-1.69-3.19c0.23-1.29,1.38-2.25,2.71-2.27c1.39-0.02,2.58,0.93,2.82,2.26
		c0.26,1.49-0.47,2.8-1.85,3.25c-0.28,0.09-0.39,0.21-0.42,0.5c-0.29,3.06-2.84,5.83-5.88,6.31c-1.04,0.16-2.12,0.11-3.18,0.16
		c-0.15,0.01-0.3,0-0.46,0c0.9,1.92,0.4,3.63-1.23,4.33c-1.45,0.62-3.16-0.1-3.72-1.56C2.48,16.61,3.09,14.74,5.1,14.22z"/>
</g>
</svg>
