<?xml version="1.0" encoding="utf-8"?>
<!-- Generator: Adobe Illustrator 25.0.0, SVG Export Plug-In . SVG Version: 6.00 Build 0)  -->
<svg version="1.1" id="圖層_1" xmlns="http://www.w3.org/2000/svg" xmlns:xlink="http://www.w3.org/1999/xlink" x="0px" y="0px"
	 viewBox="0 0 22.68 22.68" style="enable-background:new 0 0 22.68 22.68;" xml:space="preserve">
<style type="text/css">
	.st0{fill:none;stroke:#3E3A39;stroke-width:0.5;stroke-miterlimit:10;}
	.st1{fill:none;stroke:#000000;stroke-width:0.5;stroke-miterlimit:10;}
	.st2{opacity:0.6;fill:#AE9676;}
	.st3{fill:#595757;}
	.st4{opacity:0.5;clip-path:url(#SVGID_4_);}
	.st5{clip-path:url(#SVGID_6_);}
	.st6{fill:none;stroke:#D3D3D4;stroke-width:1.5;stroke-miterlimit:10;}
	.st7{opacity:0.5;clip-path:url(#SVGID_8_);}
</style>
<g>
	<path class="st3" d="M19.84,1.65c-0.11,1.27-0.22,2.52-0.33,3.76c-0.14,1.6-0.29,3.2-0.43,4.8c-0.17,1.86-0.33,3.73-0.5,5.59
		c-0.09,0.98-0.18,1.96-0.25,2.95c-0.02,0.26-0.09,0.4-0.36,0.47c-2.14,0.58-4.28,1.19-6.42,1.77c-0.14,0.04-0.3,0.04-0.43,0
		c-2.14-0.59-4.28-1.19-6.42-1.78c-0.27-0.07-0.34-0.21-0.36-0.47c-0.15-1.88-0.33-3.75-0.5-5.63c-0.16-1.85-0.32-3.7-0.48-5.55
		C3.2,5.7,3.03,3.84,2.86,1.98c-0.01-0.1-0.01-0.2-0.02-0.33C8.5,1.65,14.15,1.65,19.84,1.65z M6.62,12.72
		c0.1,1.07,0.2,2.11,0.29,3.15c0.02,0.22,0.11,0.29,0.31,0.35c1.3,0.35,2.6,0.72,3.91,1.07c0.14,0.04,0.3,0.03,0.44,0
		c1.3-0.35,2.6-0.72,3.91-1.07c0.2-0.05,0.29-0.14,0.3-0.35c0.08-1.01,0.18-2.01,0.28-3.02c0.17-1.89,0.34-3.78,0.51-5.67
		c0.06-0.65,0.11-1.3,0.16-1.96c-3.6,0-7.17,0-10.76,0C6,5.9,6.05,6.56,6.1,7.24c2.79,0,5.53,0,8.3,0c-0.05,0.73-0.1,1.42-0.16,2.2
		c-2.65,0-5.27,0-7.94,0c0.08,0.75,0.15,1.4,0.22,2.08c2.53,0,5.03,0,7.54,0c-0.1,0.93-0.19,1.82-0.3,2.71
		c-0.02,0.12-0.17,0.27-0.28,0.31c-0.63,0.19-1.26,0.36-1.9,0.52c-0.15,0.04-0.33,0.04-0.48,0c-0.62-0.16-1.24-0.35-1.86-0.5
		c-0.25-0.06-0.32-0.17-0.33-0.41c-0.02-0.48-0.08-0.95-0.12-1.43C8.04,12.72,7.35,12.72,6.62,12.72z"/>
</g>
</svg>
