<?xml version="1.0" encoding="utf-8"?>
<!-- Generator: Adobe Illustrator 25.0.0, SVG Export Plug-In . SVG Version: 6.00 Build 0)  -->
<svg version="1.1" id="圖層_1" xmlns="http://www.w3.org/2000/svg" xmlns:xlink="http://www.w3.org/1999/xlink" x="0px" y="0px"
	 viewBox="0 0 22.68 22.68" style="enable-background:new 0 0 22.68 22.68;" xml:space="preserve">
<style type="text/css">
	.st0{fill:none;stroke:#3E3A39;stroke-width:0.5;stroke-miterlimit:10;}
	.st1{fill:none;stroke:#000000;stroke-width:0.5;stroke-miterlimit:10;}
	.st2{opacity:0.6;fill:#AE9676;}
	.st3{fill:#595757;}
	.st4{opacity:0.5;clip-path:url(#SVGID_4_);}
	.st5{clip-path:url(#SVGID_6_);}
	.st6{fill:none;stroke:#D3D3D4;stroke-width:1.5;stroke-miterlimit:10;}
	.st7{opacity:0.5;clip-path:url(#SVGID_8_);}
</style>
<g>
	<path class="st3" d="M10.84,13.93c-1,0-1.98,0.06-2.95-0.01c-1.31-0.1-2.28-1.34-2.22-2.72c0.05-1.28,1.13-2.4,2.39-2.44
		c0.92-0.03,1.83-0.01,2.78-0.01C10.84,10.48,10.84,12.18,10.84,13.93z"/>
	<path class="st3" d="M10.85,7.8c-0.98,0-1.93,0.04-2.87-0.01C6.66,7.71,5.64,6.5,5.67,5.13c0.02-1.31,1.08-2.46,2.36-2.51
		c0.93-0.04,1.86-0.01,2.82-0.01C10.85,4.34,10.85,6.04,10.85,7.8z"/>
	<path class="st3" d="M11.84,2.63c1.02,0,2.03-0.07,3.03,0.02c1.27,0.12,2.19,1.35,2.14,2.7c-0.04,1.24-1.07,2.37-2.3,2.44
		c-0.94,0.05-1.89,0.01-2.87,0.01C11.84,6.08,11.84,4.37,11.84,2.63z"/>
	<path class="st3" d="M10.86,14.88c0,1,0.05,1.95-0.01,2.89c-0.08,1.36-1.34,2.37-2.78,2.3c-1.34-0.07-2.41-1.23-2.4-2.61
		c0.01-1.37,1.1-2.55,2.44-2.58C9.01,14.86,9.91,14.88,10.86,14.88z"/>
	<path class="st3" d="M17.01,11.34c0,1.45-1.14,2.6-2.58,2.61c-1.47,0.01-2.62-1.15-2.62-2.62c0-1.45,1.15-2.59,2.61-2.58
		C15.86,8.74,17.01,9.89,17.01,11.34z"/>
</g>
</svg>
