<?xml version="1.0" encoding="utf-8"?>
<!-- Generator: Adobe Illustrator 25.0.0, SVG Export Plug-In . SVG Version: 6.00 Build 0)  -->
<svg version="1.1" id="圖層_1" xmlns="http://www.w3.org/2000/svg" xmlns:xlink="http://www.w3.org/1999/xlink" x="0px" y="0px"
	 viewBox="0 0 22.68 22.68" style="enable-background:new 0 0 22.68 22.68;" xml:space="preserve">
<style type="text/css">
	.st0{fill:none;stroke:#3E3A39;stroke-width:0.5;stroke-miterlimit:10;}
	.st1{fill:none;stroke:#000000;stroke-width:0.5;stroke-miterlimit:10;}
	.st2{opacity:0.6;fill:#AE9676;}
	.st3{fill:#595757;}
	.st4{opacity:0.5;clip-path:url(#SVGID_4_);}
	.st5{clip-path:url(#SVGID_6_);}
	.st6{fill:none;stroke:#D3D3D4;stroke-width:1.5;stroke-miterlimit:10;}
	.st7{opacity:0.5;clip-path:url(#SVGID_8_);}
</style>
<g>
	<path class="st3" d="M1.42,17.23c0-3.05,0-6.1,0-9.14C1.46,8.1,1.5,8.12,1.54,8.14c2.69,1.79,5.38,3.58,8.07,5.37
		c1.13,0.75,2.35,0.75,3.48,0c2.68-1.78,5.36-3.57,8.04-5.35c0.04-0.03,0.08-0.05,0.14-0.08c0,0.06,0,0.1,0,0.14
		c0,2.92,0,5.85,0,8.77c0,0.08,0,0.16-0.02,0.23c-0.18,0.95-0.91,1.55-1.88,1.55c-5.13,0-10.25,0-15.38,0c-0.26,0-0.52,0.01-0.77,0
		c-0.57-0.03-1.06-0.24-1.39-0.72C1.64,17.81,1.54,17.51,1.42,17.23z"/>
	<path class="st3" d="M1.42,5.45c0.13-0.28,0.22-0.58,0.39-0.83C2.14,4.14,2.64,3.93,3.22,3.9c0.22-0.01,0.44,0,0.66,0
		c5.16,0,10.32,0,15.48,0c0.97,0,1.71,0.59,1.87,1.53c0.13,0.74-0.14,1.33-0.76,1.76c-0.61,0.42-1.22,0.82-1.83,1.23
		c-2.04,1.36-4.09,2.72-6.13,4.09c-0.83,0.55-1.51,0.55-2.33,0c-2.53-1.69-5.06-3.38-7.6-5.06C2.03,7.09,1.57,6.7,1.42,6.03
		C1.42,5.84,1.42,5.64,1.42,5.45z"/>
</g>
</svg>
