<?xml version="1.0" encoding="utf-8"?>
<!-- Generator: Adobe Illustrator 25.0.0, SVG Export Plug-In . SVG Version: 6.00 Build 0)  -->
<svg version="1.1" id="圖層_1" xmlns="http://www.w3.org/2000/svg" xmlns:xlink="http://www.w3.org/1999/xlink" x="0px" y="0px"
	 viewBox="0 0 22.68 22.68" style="enable-background:new 0 0 22.68 22.68;" xml:space="preserve">
<style type="text/css">
	.st0{fill:none;stroke:#3E3A39;stroke-width:0.5;stroke-miterlimit:10;}
	.st1{fill:none;stroke:#000000;stroke-width:0.5;stroke-miterlimit:10;}
	.st2{opacity:0.6;fill:#AE9676;}
	.st3{fill:#595757;}
	.st4{opacity:0.5;clip-path:url(#SVGID_4_);}
	.st5{clip-path:url(#SVGID_6_);}
	.st6{fill:none;stroke:#D3D3D4;stroke-width:1.5;stroke-miterlimit:10;}
	.st7{opacity:0.5;clip-path:url(#SVGID_8_);}
</style>
<g>
	<path class="st3" d="M4.49,5.49c-0.8,4.28,0.53,7.52,3.95,9.89c3.54,2.44,7.17,2.65,10.96,0.32c-1.3,1.85-2.98,2.99-5.13,3.38
		C9.05,20,4.05,16.6,3,11.44C2.56,9.3,2.97,7.34,4.49,5.49z"/>
	<path class="st3" d="M9.02,4.06c-1.11,6.31,6.63,10.49,10.82,7.15c-1.28,1.84-3.14,2.54-5.28,2.42c-2.81-0.16-4.84-1.66-5.99-4.17
		C7.77,7.71,7.78,5.89,9.02,4.06z"/>
	<path class="st3" d="M12.82,3.45c0.8,3.57,2.73,4.93,6.18,4.43c-0.63,1.06-3.14,1.19-4.68,0.12C13.03,7.09,11.9,5.04,12.82,3.45z"
		/>
</g>
</svg>
