<?xml version="1.0" encoding="utf-8"?>
<!-- Generator: Adobe Illustrator 25.0.0, SVG Export Plug-In . SVG Version: 6.00 Build 0)  -->
<svg version="1.1" id="圖層_1" xmlns="http://www.w3.org/2000/svg" xmlns:xlink="http://www.w3.org/1999/xlink" x="0px" y="0px"
	 viewBox="0 0 22.68 22.68" style="enable-background:new 0 0 22.68 22.68;" xml:space="preserve">
<style type="text/css">
	.st0{fill:none;stroke:#3E3A39;stroke-width:0.5;stroke-miterlimit:10;}
	.st1{fill:none;stroke:#000000;stroke-width:0.5;stroke-miterlimit:10;}
	.st2{opacity:0.6;fill:#AE9676;}
	.st3{fill:#595757;}
	.st4{opacity:0.5;clip-path:url(#SVGID_4_);}
	.st5{clip-path:url(#SVGID_6_);}
	.st6{fill:none;stroke:#D3D3D4;stroke-width:1.5;stroke-miterlimit:10;}
	.st7{opacity:0.5;clip-path:url(#SVGID_8_);}
</style>
<g>
	<path class="st3" d="M11.34,19.64c-1.77,0-3.54,0-5.31,0c-1.9,0-3.19-1.28-3.19-3.18c0-3.44,0-6.88,0-10.32
		c0-1.76,1.31-3.09,3.07-3.09c3.62-0.01,7.24-0.01,10.86,0c1.77,0,3.07,1.33,3.07,3.09c0,3.47,0,6.95,0,10.42
		c0,1.74-1.31,3.07-3.06,3.08C14.97,19.64,13.15,19.64,11.34,19.64z M8.21,12.44c0.57-0.04,1.09-0.04,1.6-0.11
		c1.33-0.17,2.18-1.12,2.2-2.4c0.02-1.39-0.75-2.4-2.12-2.56C8.89,7.25,7.88,7.32,6.87,7.3c-0.2,0-0.21,0.11-0.21,0.26
		c0,2.32,0,4.65,0,6.97c0,0.19,0.07,0.26,0.25,0.25c0.31-0.01,0.62-0.02,0.93,0c0.27,0.02,0.37-0.07,0.36-0.35
		C8.19,13.77,8.21,13.1,8.21,12.44z M12.79,13.26c0,0.35-0.01,0.74,0.01,1.14c0,0.08,0.08,0.2,0.14,0.22
		c1.06,0.38,2.13,0.49,3.14-0.07c1.11-0.62,1.1-2.15,0-2.8c-0.27-0.16-0.58-0.28-0.86-0.41c-0.26-0.12-0.53-0.23-0.77-0.39
		c-0.09-0.06-0.18-0.23-0.16-0.33c0.03-0.11,0.17-0.25,0.28-0.27c0.23-0.05,0.49-0.07,0.72-0.04c0.43,0.07,0.85,0.18,1.31,0.29
		c0-0.35-0.02-0.69,0.01-1.03c0.02-0.26-0.1-0.36-0.32-0.41c-0.66-0.15-1.33-0.21-2.01-0.07c-0.78,0.16-1.37,0.75-1.47,1.44
		c-0.1,0.73,0.21,1.31,0.96,1.73c0.28,0.16,0.58,0.27,0.87,0.4c0.19,0.09,0.39,0.17,0.55,0.29c0.27,0.2,0.22,0.5-0.11,0.6
		c-0.19,0.06-0.4,0.09-0.59,0.06C13.93,13.52,13.38,13.38,12.79,13.26z"/>
	<path class="st3" d="M8.23,11.15c0-0.89,0-1.66,0-2.53C8.74,8.68,9.26,8.68,9.75,8.8c0.46,0.11,0.7,0.48,0.72,0.96
		c0.03,0.55-0.16,0.95-0.65,1.11C9.33,11.02,8.8,11.06,8.23,11.15z"/>
</g>
</svg>
