<?xml version="1.0" encoding="utf-8"?>
<!-- Generator: Adobe Illustrator 25.0.0, SVG Export Plug-In . SVG Version: 6.00 Build 0)  -->
<svg version="1.1" id="圖層_1" xmlns="http://www.w3.org/2000/svg" xmlns:xlink="http://www.w3.org/1999/xlink" x="0px" y="0px"
	 viewBox="0 0 22.68 22.68" style="enable-background:new 0 0 22.68 22.68;" xml:space="preserve">
<style type="text/css">
	.st0{fill:none;stroke:#3E3A39;stroke-width:0.5;stroke-miterlimit:10;}
	.st1{fill:none;stroke:#000000;stroke-width:0.5;stroke-miterlimit:10;}
	.st2{opacity:0.6;fill:#AE9676;}
	.st3{fill:#595757;}
	.st4{opacity:0.5;clip-path:url(#SVGID_4_);}
	.st5{clip-path:url(#SVGID_6_);}
	.st6{fill:none;stroke:#D3D3D4;stroke-width:1.5;stroke-miterlimit:10;}
	.st7{opacity:0.5;clip-path:url(#SVGID_8_);}
</style>
<g>
	<path class="st3" d="M11.36,1.62c2.55,0,5.11,0,7.66,0c0.69,0,0.87,0.23,0.82,0.9c-0.15,1.77-0.28,3.54-0.42,5.32
		c-0.17,2.15-0.34,4.3-0.51,6.46c-0.11,1.34-0.22,2.68-0.31,4.03c-0.03,0.37-0.2,0.57-0.54,0.68c-2.13,0.67-4.25,1.35-6.38,2.02
		c-0.2,0.06-0.46,0.06-0.66,0c-2.12-0.66-4.23-1.34-6.35-2c-0.36-0.11-0.53-0.32-0.56-0.71c-0.16-2.22-0.34-4.43-0.52-6.65
		C3.38,9.21,3.19,6.77,2.99,4.33C2.94,3.65,2.88,2.98,2.84,2.31c-0.03-0.45,0.23-0.69,0.74-0.7c2.53,0,5.06,0,7.59,0
		C11.23,1.62,11.29,1.62,11.36,1.62z M5.91,5.18c0,0.12-0.01,0.21,0,0.29c0.15,1.94,0.31,3.87,0.44,5.81
		c0.02,0.37,0.14,0.46,0.49,0.46c2.25-0.02,4.5-0.01,6.75-0.01c0.15,0,0.3,0,0.48,0c-0.06,0.86-0.11,1.67-0.18,2.47
		c-0.01,0.09-0.18,0.19-0.29,0.23c-0.66,0.19-1.32,0.37-1.98,0.54c-0.14,0.03-0.3,0.03-0.45-0.01c-0.65-0.16-1.3-0.35-1.95-0.51
		c-0.24-0.06-0.32-0.17-0.31-0.42c0.02-0.44,0.01-0.88,0.01-1.31c-0.85,0-1.64,0-2.45,0c0.08,1.09,0.15,2.14,0.26,3.19
		c0.01,0.12,0.17,0.27,0.3,0.31c1.36,0.45,2.73,0.88,4.1,1.3c0.15,0.05,0.33,0.04,0.48-0.01c1.34-0.42,2.68-0.85,4.03-1.27
		c0.24-0.08,0.35-0.2,0.37-0.45c0.15-1.99,0.31-3.97,0.46-5.96c0.01-0.08-0.01-0.17-0.03-0.3c-0.17,0-0.32,0-0.47,0
		c-1.63,0-3.25,0-4.88,0c-0.71,0-1.42,0.01-2.13-0.01c-0.11,0-0.3-0.09-0.31-0.16C8.54,8.7,8.48,8.03,8.4,7.3c0.21,0,0.37,0,0.53,0
		c2.39,0,4.78,0,7.17,0c0.11,0,0.24,0.02,0.34-0.01c0.09-0.03,0.21-0.12,0.22-0.2c0.06-0.63,0.1-1.26,0.15-1.91
		C13.15,5.18,9.55,5.18,5.91,5.18z"/>
</g>
</svg>
