<?xml version="1.0" encoding="utf-8"?>
<!-- Generator: Adobe Illustrator 25.0.0, SVG Export Plug-In . SVG Version: 6.00 Build 0)  -->
<svg version="1.1" id="圖層_1" xmlns="http://www.w3.org/2000/svg" xmlns:xlink="http://www.w3.org/1999/xlink" x="0px" y="0px"
	 viewBox="0 0 22.68 22.68" style="enable-background:new 0 0 22.68 22.68;" xml:space="preserve">
<style type="text/css">
	.st0{fill:none;stroke:#3E3A39;stroke-width:0.5;stroke-miterlimit:10;}
	.st1{fill:none;stroke:#000000;stroke-width:0.5;stroke-miterlimit:10;}
	.st2{opacity:0.6;fill:#AE9676;}
	.st3{fill:#595757;}
	.st4{opacity:0.5;clip-path:url(#SVGID_4_);}
	.st5{clip-path:url(#SVGID_6_);}
	.st6{fill:none;stroke:#D3D3D4;stroke-width:1.5;stroke-miterlimit:10;}
	.st7{opacity:0.5;clip-path:url(#SVGID_8_);}
</style>
<g>
	<path class="st3" d="M11.36,3.04c1.76,0,3.52,0,5.28,0c1.92,0,3.2,1.28,3.2,3.2c0,3.43,0,6.86,0,10.29c0,1.78-1.31,3.1-3.1,3.1
		c-3.61,0-7.22,0-10.82,0c-1.77,0-3.08-1.32-3.09-3.08c0-3.48,0-6.95,0-10.43c0-1.76,1.31-3.08,3.08-3.09
		C7.73,3.03,9.55,3.04,11.36,3.04z M8.81,7.29C8.73,7.63,8.68,7.93,8.58,8.22c-0.7,2.05-1.42,4.09-2.13,6.13
		c-0.04,0.12-0.07,0.24-0.13,0.41c0.44,0,0.83-0.01,1.21,0c0.23,0.01,0.36-0.06,0.42-0.3c0.14-0.49,0.31-0.98,0.48-1.47
		c0.83,0,1.63-0.01,2.42,0.01c0.09,0,0.23,0.11,0.27,0.2c0.17,0.43,0.31,0.87,0.47,1.31c0.03,0.09,0.12,0.23,0.19,0.23
		c0.5,0.02,1.01,0.01,1.5,0.01c0.01-0.07,0.03-0.09,0.02-0.11c-0.84-2.39-1.69-4.79-2.54-7.18c-0.03-0.07-0.13-0.17-0.2-0.17
		C9.98,7.28,9.39,7.29,8.81,7.29z M15.66,9.1c-0.5,0-0.97-0.01-1.44,0.01c-0.05,0-0.14,0.16-0.14,0.24c-0.01,1.73,0,3.45-0.01,5.18
		c0,0.19,0.08,0.26,0.26,0.25c0.31-0.01,0.62-0.02,0.93,0c0.31,0.02,0.42-0.07,0.41-0.4c-0.02-1.61-0.01-3.23-0.01-4.84
		C15.66,9.41,15.66,9.28,15.66,9.1z M14.88,6.73c-0.52,0.01-0.89,0.39-0.88,0.9c0.01,0.53,0.38,0.87,0.92,0.86
		c0.5-0.01,0.85-0.39,0.84-0.9C15.75,7.07,15.39,6.73,14.88,6.73z"/>
	<path class="st3" d="M8.86,11.53c0.29-0.97,0.56-1.9,0.84-2.83c0.02,0,0.05-0.01,0.07-0.01c0.29,0.94,0.58,1.87,0.87,2.84
		C10.04,11.53,9.48,11.53,8.86,11.53z"/>
</g>
</svg>
